<?xml version="1.0" encoding="utf-8"?>
<!-- Generator: Adobe Illustrator 22.1.0, SVG Export Plug-In . SVG Version: 6.00 Build 0)  -->
<svg version="1.1" id="Calque_1" xmlns="http://www.w3.org/2000/svg" xmlns:xlink="http://www.w3.org/1999/xlink" x="0px" y="0px"
	 viewBox="0 0 83.6 86.5" style="enable-background:new 0 0 83.6 86.5;" xml:space="preserve">
<style type="text/css">
	.st0{fill:#FFD01A;}
</style>
<path class="st0" d="M22.4,63.2c-2.3-0.1-4.5,0.1-6.6-0.4c-3.6-0.7-6.3-3-8.2-6.1c-1.7-2.9-1.4-5.8,0.3-8.6c1.8-3,4.4-5.3,7.4-7
	c3-1.7,6.1-3.1,9.1-4.7c0,0.1,0.1,0.2,0.1,0.3c0-0.1,0.1-0.2,0.1-0.3c-0.8-6,1.9-10,6.9-12.7c1-0.5,1.2-1,0.9-2
	c-1.4-4.9-4.3-8.3-8.9-10.4c-0.5-0.2-1-0.4-1.4-0.6c-1.1-0.5-1.5-1.4-1.1-2.3c0.4-0.9,1.2-1.3,2.3-0.9c3.8,1.3,7,3.5,9.4,6.7
	c1.7,2.3,2.8,4.9,3.4,7.7c2.1,0,4,0,5.7,0c1.1-2.4,1.9-4.7,3.2-6.8c2.2-3.7,5.6-6.1,9.6-7.5c1.3-0.5,2.4-0.1,2.7,0.9
	c0.4,1.1-0.2,1.9-1.6,2.4c-5.2,1.9-8.5,5.6-10,11c-0.2,0.9-0.1,1.3,0.8,1.7c3.6,1.8,6.2,4.4,7,8.4c0.3,1.2,0.2,2.5,0.1,3.7
	c-0.1,0.8,0.2,1.1,0.9,1.3c4.7,1.6,9,3.9,12.7,7.3c1.9,1.7,3.5,3.7,4.2,6.2c0.8,2.8,0.2,5.3-1.6,7.5c-3.4,4.2-7.7,6.1-13.1,5
	c-0.2,0-0.5,0-0.8-0.1c-0.7,2.9-1.9,5.4-3.8,7.6c-2.5,2.7-5.5,4.5-9,5.3c-1,0.2-1.5,0.6-1.9,1.5c-0.3,0.8-0.7,1.6-1.1,2.4
	c-0.2,0.4-0.7,0.8-1,0.8c-0.3,0-0.9-0.4-0.9-0.7c-0.7-3-2.9-3.9-5.5-4.9c-5.3-1.9-8.7-5.8-10.1-11.3C22.5,63.5,22.4,63.2,22.4,63.2z
	 M47.8,39c-2.9,0-3.4,0.4-3.5,2.8c0,0.2,0,0.5,0,0.7c-0.1,7.4,5.1,14.6,12.2,16.8c3.8,1.2,7.2,0.4,10-2.5c2.6-2.6,2.9-5,0.5-7.8
	c-1.4-1.7-3.1-3.3-4.9-4.5C57.6,41.4,52.7,39.4,47.8,39z M34.2,42.8c-0.1-3.7-0.2-4-3.8-3.7c-4.9,0.4-9.3,2.3-13.5,5
	c-2.6,1.7-5.1,3.7-6.5,6.6c-0.6,1.3-0.7,2.6-0.1,3.9c1.6,3.5,6.1,5.9,9.9,5.2C28.1,58.2,34.2,50.8,34.2,42.8z M26.8,65
	c1.8,4.9,7.4,8.1,13.3,7.8c5.1-0.2,10.4-3.9,11.5-8.2C43.5,67.5,35.2,67.7,26.8,65z M32.3,57c4.6,1.1,9.2,1,14-0.2
	c-2-2.4-3.5-4.8-4.4-7.6c-0.8-2.4-0.8-2.4-3.4-2.3c-0.2,0-0.4,0-0.5,0.1c-0.4,0.3-0.8,0.5-1,0.9c-0.5,1.2-0.8,2.6-1.5,3.8
	C34.6,53.4,33.4,55.1,32.3,57z"/>
</svg>
